<svg xmlns="http://www.w3.org/2000/svg" version="1.1" xmlns:xlink="http://www.w3.org/1999/xlink" xmlns:svgjs="http://svgjs.dev/svgjs" width="2000" height="550" viewBox="0 0 2000 550"><g transform="matrix(1,0,0,1,-0.9965572769169739,-0.6141666666666197)"><svg viewBox="0 0 207 57" data-background-color="#001f3f" preserveAspectRatio="xMidYMid meet" height="550" width="2000" xmlns="http://www.w3.org/2000/svg" xmlns:xlink="http://www.w3.org/1999/xlink"><g id="tight-bounds" transform="matrix(1,0,0,1,0.10314367816090453,0.06364999999999554)"><svg viewBox="0 0 206.79371264367822 56.872699999999995" height="56.872699999999995" width="206.79371264367822"><g><svg viewBox="0 0 206.79371264367822 56.872699999999995" height="56.872699999999995" width="206.79371264367822"><g><svg viewBox="0 0 206.79371264367822 56.872699999999995" height="56.872699999999995" width="206.79371264367822"><g id="textblocktransform"><svg viewBox="0 0 206.79371264367822 56.872699999999995" height="56.872699999999995" width="206.79371264367822" id="textblock"><g><svg viewBox="0 0 206.79371264367822 56.872699999999995" height="56.872699999999995" width="206.79371264367822"><g><svg><g></g><g></g></svg></g><g><svg><g><svg></svg></g><g></g></svg></g><g id="text-0"><svg viewBox="0 0 206.79371264367822 56.872699999999995" height="56.872699999999995" width="206.79371264367822"><g transform="matrix(1,0,0,1,0,10.861349999999998)"><svg width="104.05172413793107" viewBox="1.2 -34.5 104.04171846918 35.15" height="35.15" data-palette-color="#ffffff"><path d="M12.3-34.5L16.7-34.5 16.7 0 12.3 0 12.3-34.5ZM1.2-34.5L27.85-34.5 27.85-30.6 1.2-30.6 1.2-34.5ZM37.65-24.95L37.65-24.95Q41.85-24.95 44.37-23.7 46.9-22.45 48-19.63 49.1-16.8 49.1-12.15L49.1-12.15Q49.1-7.5 48-4.67 46.9-1.85 44.37-0.6 41.85 0.65 37.65 0.65L37.65 0.65Q33.5 0.65 30.97-0.6 28.45-1.85 27.32-4.67 26.2-7.5 26.2-12.15L26.2-12.15Q26.2-16.8 27.32-19.63 28.45-22.45 30.97-23.7 33.5-24.95 37.65-24.95ZM37.65-21.35L37.65-21.35Q35-21.35 33.47-20.53 31.95-19.7 31.3-17.7 30.65-15.7 30.65-12.15L30.65-12.15Q30.65-8.6 31.3-6.6 31.95-4.6 33.47-3.78 35-2.95 37.65-2.95L37.65-2.95Q40.3-2.95 41.85-3.78 43.4-4.6 44.05-6.6 44.7-8.6 44.7-12.15L44.7-12.15Q44.7-15.7 44.05-17.7 43.4-19.7 41.85-20.53 40.3-21.35 37.65-21.35ZM70.55-24.95L70.55-24.95Q77.14-24.95 77.14-18.25L77.14-18.25 77.14 0 72.89 0 72.89-17.05Q72.89-19.5 72.09-20.43 71.3-21.35 69.39-21.35L69.39-21.35Q67.14-21.35 64.89-20.25 62.64-19.15 59.55-17.25L59.55-17.25 59.34-20.3Q62.2-22.5 65-23.73 67.8-24.95 70.55-24.95ZM55.74-24.35L59.34-24.35 59.7-19.7 59.99-18.95 59.99 0 55.74 0 55.74-24.35ZM94.79-24.95L94.79-24.95Q100.29-24.95 102.77-22.95 105.24-20.95 105.24-17L105.24-17Q105.29-13.75 103.89-11.93 102.49-10.1 99.44-10.1L99.44-10.1 85.24-10.1 85.24-13.4 98.34-13.4Q99.99-13.4 100.49-14.53 100.99-15.65 100.99-17L100.99-17Q100.94-19.35 99.59-20.35 98.24-21.35 94.99-21.35L94.99-21.35Q92.34-21.35 90.82-20.58 89.29-19.8 88.67-17.88 88.04-15.95 88.04-12.5L88.04-12.5Q88.04-8.6 88.82-6.55 89.59-4.5 91.29-3.75 92.99-3 95.79-3L95.79-3Q97.74-3 100.07-3.18 102.39-3.35 104.24-3.6L104.24-3.6 104.69-0.75Q103.54-0.3 101.87 0 100.19 0.3 98.42 0.45 96.64 0.6 95.24 0.6L95.24 0.6Q91.04 0.6 88.49-0.68 85.94-1.95 84.77-4.78 83.59-7.6 83.59-12.25L83.59-12.25Q83.59-17.05 84.77-19.83 85.94-22.6 88.42-23.78 90.89-24.95 94.79-24.95Z" opacity="1" transform="matrix(1,0,0,1,0,0)" fill="#ffffff" class="undefined-tk-0"></path></svg></g><g><svg xmlns="http://www.w3.org/2000/svg" xmlns:xlink="http://www.w3.org/1999/xlink" xml:space="preserve" version="1.1" style="shape-rendering:geometricPrecision;text-rendering:geometricPrecision;image-rendering:optimizeQuality;" viewBox="0 0 192 261" x="117.47902413793108" y="0" fill-rule="evenodd" clip-rule="evenodd" height="56.872699999999995" width="41.83738850574712" class="icon-dxe-0" data-fill-palette-color="accent" id="dxe-0"><g fill="#ffffff" data-fill-palette-color="accent"><path class="" d="M177 38L110 60V206C110 236 85 261 55 261S0 236 0 206 25 151 55 151C63 151 71 153 78 157V49C78 42 83 36 89 34L192 0zM55 230C68 230 78 219 78 206S68 182 55 182 31 193 31 206 42 230 55 230" fill="#ffffff" data-fill-palette-color="accent"></path></g></svg></g><g transform="matrix(1,0,0,1,172.7437126436782,10.536349999999995)"><svg width="34.050000000000004" viewBox="4.35 -34.5 34.05 34.5" height="34.5" data-palette-color="#ffffff"><path d="M4.35-34.5L8.75-34.5 8.75 0 4.35 0 4.35-34.5ZM31.8-24.95L31.8-24.95Q38.4-24.95 38.4-18.25L38.4-18.25 38.4 0 34.15 0 34.15-17.05Q34.15-19.5 33.35-20.43 32.55-21.35 30.65-21.35L30.65-21.35Q28.4-21.35 26.15-20.25 23.9-19.15 20.8-17.25L20.8-17.25 20.6-20.3Q23.45-22.5 26.25-23.73 29.05-24.95 31.8-24.95ZM17-24.35L20.6-24.35 20.95-19.7 21.25-18.95 21.25 0 17 0 17-24.35Z" opacity="1" transform="matrix(1,0,0,1,0,0)" fill="#ffffff" class="undefined-tk-1"></path></svg></g></svg></g></svg></g></svg></g></svg></g><g></g></svg></g><defs></defs></svg><rect width="206.79371264367822" height="56.872699999999995" fill="none" stroke="none" visibility="hidden"></rect></g></svg></g></svg>